<svg xmlns="http://www.w3.org/2000/svg"
        width="1000"
        height="470"
        viewBox="0 0 1000 470">
        <defs>
          <linearGradient id="border" x1="0" y1="0" x2="1" y2="0">
            <stop offset="0%" stop-color="#58A6FF"/>
            <stop offset="50%" stop-color="#A371F7"/>
            <stop offset="100%" stop-color="#3FB950"/>
          </linearGradient>
        </defs>

        <rect width="100%" height="100%" rx="14"
              fill="#0D1117"
              stroke="#30363D"/>

        <rect x="1" y="1" width="998" height="3"
              rx="2"
              fill="url(#border)"/>

        <text x="32" y="48"
              fill="#8B949E"
              font-family="monospace"
              font-size="15">
          $ hedgehog --activity
        </text>

        <text x="32" y="82"
              fill="#F0F6FC"
              font-family="monospace"
              font-size="22"
              font-weight="bold">
          GITHUB ACTIVITY MATRIX
        </text>

        <text x="32" y="108"
              fill="#8B949E"
              font-family="monospace"
              font-size="13">
          public repository activity · last 12 months
        </text>
        
<rect x="32" y="253" width="14" height="14" rx="3" fill="#161B22"><title>2025-10-05: 0 commit(s)</title></rect>
<rect x="32" y="145" width="14" height="14" rx="3" fill="#161B22"><title>2025-10-06: 0 commit(s)</title></rect>
<rect x="32" y="163" width="14" height="14" rx="3" fill="#161B22"><title>2025-10-07: 0 commit(s)</title></rect>
<rect x="32" y="181" width="14" height="14" rx="3" fill="#39D353"><title>2025-10-08: 11 commit(s)</title></rect>
<rect x="32" y="199" width="14" height="14" rx="3" fill="#161B22"><title>2025-10-09: 0 commit(s)</title></rect>
<rect x="32" y="217" width="14" height="14" rx="3" fill="#161B22"><title>2025-10-10: 0 commit(s)</title></rect>
<rect x="32" y="235" width="14" height="14" rx="3" fill="#0E4429"><title>2025-10-11: 2 commit(s)</title></rect>
<rect x="50" y="253" width="14" height="14" rx="3" fill="#161B22"><title>2025-10-12: 0 commit(s)</title></rect>
<rect x="50" y="145" width="14" height="14" rx="3" fill="#161B22"><title>2025-10-13: 0 commit(s)</title></rect>
<rect x="50" y="163" width="14" height="14" rx="3" fill="#161B22"><title>2025-10-14: 0 commit(s)</title></rect>
<rect x="50" y="181" width="14" height="14" rx="3" fill="#161B22"><title>2025-10-15: 0 commit(s)</title></rect>
<rect x="50" y="199" width="14" height="14" rx="3" fill="#0E4429"><title>2025-10-16: 1 commit(s)</title></rect>
<rect x="50" y="217" width="14" height="14" rx="3" fill="#161B22"><title>2025-10-17: 0 commit(s)</title></rect>
<rect x="50" y="235" width="14" height="14" rx="3" fill="#161B22"><title>2025-10-18: 0 commit(s)</title></rect>
<rect x="68" y="253" width="14" height="14" rx="3" fill="#161B22"><title>2025-10-19: 0 commit(s)</title></rect>
<rect x="68" y="145" width="14" height="14" rx="3" fill="#161B22"><title>2025-10-20: 0 commit(s)</title></rect>
<rect x="68" y="163" width="14" height="14" rx="3" fill="#161B22"><title>2025-10-21: 0 commit(s)</title></rect>
<rect x="68" y="181" width="14" height="14" rx="3" fill="#161B22"><title>2025-10-22: 0 commit(s)</title></rect>
<rect x="68" y="199" width="14" height="14" rx="3" fill="#161B22"><title>2025-10-23: 0 commit(s)</title></rect>
<rect x="68" y="217" width="14" height="14" rx="3" fill="#161B22"><title>2025-10-24: 0 commit(s)</title></rect>
<rect x="68" y="235" width="14" height="14" rx="3" fill="#161B22"><title>2025-10-25: 0 commit(s)</title></rect>
<rect x="86" y="253" width="14" height="14" rx="3" fill="#161B22"><title>2025-10-26: 0 commit(s)</title></rect>
<rect x="86" y="145" width="14" height="14" rx="3" fill="#161B22"><title>2025-10-27: 0 commit(s)</title></rect>
<rect x="86" y="163" width="14" height="14" rx="3" fill="#161B22"><title>2025-10-28: 0 commit(s)</title></rect>
<rect x="86" y="181" width="14" height="14" rx="3" fill="#161B22"><title>2025-10-29: 0 commit(s)</title></rect>
<rect x="86" y="199" width="14" height="14" rx="3" fill="#161B22"><title>2025-10-30: 0 commit(s)</title></rect>
<rect x="86" y="217" width="14" height="14" rx="3" fill="#161B22"><title>2025-10-31: 0 commit(s)</title></rect>
<rect x="86" y="235" width="14" height="14" rx="3" fill="#161B22"><title>2025-11-01: 0 commit(s)</title></rect>
<rect x="104" y="253" width="14" height="14" rx="3" fill="#161B22"><title>2025-11-02: 0 commit(s)</title></rect>
<rect x="104" y="145" width="14" height="14" rx="3" fill="#161B22"><title>2025-11-03: 0 commit(s)</title></rect>
<rect x="104" y="163" width="14" height="14" rx="3" fill="#161B22"><title>2025-11-04: 0 commit(s)</title></rect>
<rect x="104" y="181" width="14" height="14" rx="3" fill="#161B22"><title>2025-11-05: 0 commit(s)</title></rect>
<rect x="104" y="199" width="14" height="14" rx="3" fill="#161B22"><title>2025-11-06: 0 commit(s)</title></rect>
<rect x="104" y="217" width="14" height="14" rx="3" fill="#161B22"><title>2025-11-07: 0 commit(s)</title></rect>
<rect x="104" y="235" width="14" height="14" rx="3" fill="#161B22"><title>2025-11-08: 0 commit(s)</title></rect>
<rect x="122" y="253" width="14" height="14" rx="3" fill="#161B22"><title>2025-11-09: 0 commit(s)</title></rect>
<rect x="122" y="145" width="14" height="14" rx="3" fill="#161B22"><title>2025-11-10: 0 commit(s)</title></rect>
<rect x="122" y="163" width="14" height="14" rx="3" fill="#161B22"><title>2025-11-11: 0 commit(s)</title></rect>
<rect x="122" y="181" width="14" height="14" rx="3" fill="#161B22"><title>2025-11-12: 0 commit(s)</title></rect>
<rect x="122" y="199" width="14" height="14" rx="3" fill="#161B22"><title>2025-11-13: 0 commit(s)</title></rect>
<rect x="122" y="217" width="14" height="14" rx="3" fill="#161B22"><title>2025-11-14: 0 commit(s)</title></rect>
<rect x="122" y="235" width="14" height="14" rx="3" fill="#161B22"><title>2025-11-15: 0 commit(s)</title></rect>
<rect x="140" y="253" width="14" height="14" rx="3" fill="#161B22"><title>2025-11-16: 0 commit(s)</title></rect>
<rect x="140" y="145" width="14" height="14" rx="3" fill="#161B22"><title>2025-11-17: 0 commit(s)</title></rect>
<rect x="140" y="163" width="14" height="14" rx="3" fill="#161B22"><title>2025-11-18: 0 commit(s)</title></rect>
<rect x="140" y="181" width="14" height="14" rx="3" fill="#161B22"><title>2025-11-19: 0 commit(s)</title></rect>
<rect x="140" y="199" width="14" height="14" rx="3" fill="#161B22"><title>2025-11-20: 0 commit(s)</title></rect>
<rect x="140" y="217" width="14" height="14" rx="3" fill="#161B22"><title>2025-11-21: 0 commit(s)</title></rect>
<rect x="140" y="235" width="14" height="14" rx="3" fill="#161B22"><title>2025-11-22: 0 commit(s)</title></rect>
<rect x="158" y="253" width="14" height="14" rx="3" fill="#161B22"><title>2025-11-23: 0 commit(s)</title></rect>
<rect x="158" y="145" width="14" height="14" rx="3" fill="#161B22"><title>2025-11-24: 0 commit(s)</title></rect>
<rect x="158" y="163" width="14" height="14" rx="3" fill="#161B22"><title>2025-11-25: 0 commit(s)</title></rect>
<rect x="158" y="181" width="14" height="14" rx="3" fill="#161B22"><title>2025-11-26: 0 commit(s)</title></rect>
<rect x="158" y="199" width="14" height="14" rx="3" fill="#161B22"><title>2025-11-27: 0 commit(s)</title></rect>
<rect x="158" y="217" width="14" height="14" rx="3" fill="#161B22"><title>2025-11-28: 0 commit(s)</title></rect>
<rect x="158" y="235" width="14" height="14" rx="3" fill="#161B22"><title>2025-11-29: 0 commit(s)</title></rect>
<rect x="176" y="253" width="14" height="14" rx="3" fill="#161B22"><title>2025-11-30: 0 commit(s)</title></rect>
<rect x="176" y="145" width="14" height="14" rx="3" fill="#161B22"><title>2025-12-01: 0 commit(s)</title></rect>
<rect x="176" y="163" width="14" height="14" rx="3" fill="#161B22"><title>2025-12-02: 0 commit(s)</title></rect>
<rect x="176" y="181" width="14" height="14" rx="3" fill="#161B22"><title>2025-12-03: 0 commit(s)</title></rect>
<rect x="176" y="199" width="14" height="14" rx="3" fill="#161B22"><title>2025-12-04: 0 commit(s)</title></rect>
<rect x="176" y="217" width="14" height="14" rx="3" fill="#161B22"><title>2025-12-05: 0 commit(s)</title></rect>
<rect x="176" y="235" width="14" height="14" rx="3" fill="#161B22"><title>2025-12-06: 0 commit(s)</title></rect>
<rect x="194" y="253" width="14" height="14" rx="3" fill="#161B22"><title>2025-12-07: 0 commit(s)</title></rect>
<rect x="194" y="145" width="14" height="14" rx="3" fill="#161B22"><title>2025-12-08: 0 commit(s)</title></rect>
<rect x="194" y="163" width="14" height="14" rx="3" fill="#161B22"><title>2025-12-09: 0 commit(s)</title></rect>
<rect x="194" y="181" width="14" height="14" rx="3" fill="#161B22"><title>2025-12-10: 0 commit(s)</title></rect>
<rect x="194" y="199" width="14" height="14" rx="3" fill="#161B22"><title>2025-12-11: 0 commit(s)</title></rect>
<rect x="194" y="217" width="14" height="14" rx="3" fill="#161B22"><title>2025-12-12: 0 commit(s)</title></rect>
<rect x="194" y="235" width="14" height="14" rx="3" fill="#161B22"><title>2025-12-13: 0 commit(s)</title></rect>
<rect x="212" y="253" width="14" height="14" rx="3" fill="#161B22"><title>2025-12-14: 0 commit(s)</title></rect>
<rect x="212" y="145" width="14" height="14" rx="3" fill="#161B22"><title>2025-12-15: 0 commit(s)</title></rect>
<rect x="212" y="163" width="14" height="14" rx="3" fill="#161B22"><title>2025-12-16: 0 commit(s)</title></rect>
<rect x="212" y="181" width="14" height="14" rx="3" fill="#161B22"><title>2025-12-17: 0 commit(s)</title></rect>
<rect x="212" y="199" width="14" height="14" rx="3" fill="#161B22"><title>2025-12-18: 0 commit(s)</title></rect>
<rect x="212" y="217" width="14" height="14" rx="3" fill="#161B22"><title>2025-12-19: 0 commit(s)</title></rect>
<rect x="212" y="235" width="14" height="14" rx="3" fill="#161B22"><title>2025-12-20: 0 commit(s)</title></rect>
<rect x="230" y="253" width="14" height="14" rx="3" fill="#161B22"><title>2025-12-21: 0 commit(s)</title></rect>
<rect x="230" y="145" width="14" height="14" rx="3" fill="#161B22"><title>2025-12-22: 0 commit(s)</title></rect>
<rect x="230" y="163" width="14" height="14" rx="3" fill="#161B22"><title>2025-12-23: 0 commit(s)</title></rect>
<rect x="230" y="181" width="14" height="14" rx="3" fill="#161B22"><title>2025-12-24: 0 commit(s)</title></rect>
<rect x="230" y="199" width="14" height="14" rx="3" fill="#161B22"><title>2025-12-25: 0 commit(s)</title></rect>
<rect x="230" y="217" width="14" height="14" rx="3" fill="#161B22"><title>2025-12-26: 0 commit(s)</title></rect>
<rect x="230" y="235" width="14" height="14" rx="3" fill="#161B22"><title>2025-12-27: 0 commit(s)</title></rect>
<rect x="248" y="253" width="14" height="14" rx="3" fill="#161B22"><title>2025-12-28: 0 commit(s)</title></rect>
<rect x="248" y="145" width="14" height="14" rx="3" fill="#161B22"><title>2025-12-29: 0 commit(s)</title></rect>
<rect x="248" y="163" width="14" height="14" rx="3" fill="#161B22"><title>2025-12-30: 0 commit(s)</title></rect>
<rect x="248" y="181" width="14" height="14" rx="3" fill="#161B22"><title>2025-12-31: 0 commit(s)</title></rect>
<rect x="248" y="199" width="14" height="14" rx="3" fill="#161B22"><title>2026-01-01: 0 commit(s)</title></rect>
<rect x="248" y="217" width="14" height="14" rx="3" fill="#161B22"><title>2026-01-02: 0 commit(s)</title></rect>
<rect x="248" y="235" width="14" height="14" rx="3" fill="#161B22"><title>2026-01-03: 0 commit(s)</title></rect>
<rect x="266" y="253" width="14" height="14" rx="3" fill="#161B22"><title>2026-01-04: 0 commit(s)</title></rect>
<rect x="266" y="145" width="14" height="14" rx="3" fill="#161B22"><title>2026-01-05: 0 commit(s)</title></rect>
<rect x="266" y="163" width="14" height="14" rx="3" fill="#161B22"><title>2026-01-06: 0 commit(s)</title></rect>
<rect x="266" y="181" width="14" height="14" rx="3" fill="#161B22"><title>2026-01-07: 0 commit(s)</title></rect>
<rect x="266" y="199" width="14" height="14" rx="3" fill="#161B22"><title>2026-01-08: 0 commit(s)</title></rect>
<rect x="266" y="217" width="14" height="14" rx="3" fill="#161B22"><title>2026-01-09: 0 commit(s)</title></rect>
<rect x="266" y="235" width="14" height="14" rx="3" fill="#161B22"><title>2026-01-10: 0 commit(s)</title></rect>
<rect x="284" y="253" width="14" height="14" rx="3" fill="#161B22"><title>2026-01-11: 0 commit(s)</title></rect>
<rect x="284" y="145" width="14" height="14" rx="3" fill="#161B22"><title>2026-01-12: 0 commit(s)</title></rect>
<rect x="284" y="163" width="14" height="14" rx="3" fill="#161B22"><title>2026-01-13: 0 commit(s)</title></rect>
<rect x="284" y="181" width="14" height="14" rx="3" fill="#161B22"><title>2026-01-14: 0 commit(s)</title></rect>
<rect x="284" y="199" width="14" height="14" rx="3" fill="#161B22"><title>2026-01-15: 0 commit(s)</title></rect>
<rect x="284" y="217" width="14" height="14" rx="3" fill="#161B22"><title>2026-01-16: 0 commit(s)</title></rect>
<rect x="284" y="235" width="14" height="14" rx="3" fill="#161B22"><title>2026-01-17: 0 commit(s)</title></rect>
<rect x="302" y="253" width="14" height="14" rx="3" fill="#161B22"><title>2026-01-18: 0 commit(s)</title></rect>
<rect x="302" y="145" width="14" height="14" rx="3" fill="#161B22"><title>2026-01-19: 0 commit(s)</title></rect>
<rect x="302" y="163" width="14" height="14" rx="3" fill="#161B22"><title>2026-01-20: 0 commit(s)</title></rect>
<rect x="302" y="181" width="14" height="14" rx="3" fill="#161B22"><title>2026-01-21: 0 commit(s)</title></rect>
<rect x="302" y="199" width="14" height="14" rx="3" fill="#161B22"><title>2026-01-22: 0 commit(s)</title></rect>
<rect x="302" y="217" width="14" height="14" rx="3" fill="#161B22"><title>2026-01-23: 0 commit(s)</title></rect>
<rect x="302" y="235" width="14" height="14" rx="3" fill="#161B22"><title>2026-01-24: 0 commit(s)</title></rect>
<rect x="320" y="253" width="14" height="14" rx="3" fill="#161B22"><title>2026-01-25: 0 commit(s)</title></rect>
<rect x="320" y="145" width="14" height="14" rx="3" fill="#161B22"><title>2026-01-26: 0 commit(s)</title></rect>
<rect x="320" y="163" width="14" height="14" rx="3" fill="#161B22"><title>2026-01-27: 0 commit(s)</title></rect>
<rect x="320" y="181" width="14" height="14" rx="3" fill="#161B22"><title>2026-01-28: 0 commit(s)</title></rect>
<rect x="320" y="199" width="14" height="14" rx="3" fill="#161B22"><title>2026-01-29: 0 commit(s)</title></rect>
<rect x="320" y="217" width="14" height="14" rx="3" fill="#161B22"><title>2026-01-30: 0 commit(s)</title></rect>
<rect x="320" y="235" width="14" height="14" rx="3" fill="#161B22"><title>2026-01-31: 0 commit(s)</title></rect>
<rect x="338" y="253" width="14" height="14" rx="3" fill="#161B22"><title>2026-02-01: 0 commit(s)</title></rect>
<rect x="338" y="145" width="14" height="14" rx="3" fill="#161B22"><title>2026-02-02: 0 commit(s)</title></rect>
<rect x="338" y="163" width="14" height="14" rx="3" fill="#006D32"><title>2026-02-03: 3 commit(s)</title></rect>
<rect x="338" y="181" width="14" height="14" rx="3" fill="#161B22"><title>2026-02-04: 0 commit(s)</title></rect>
<rect x="338" y="199" width="14" height="14" rx="3" fill="#161B22"><title>2026-02-05: 0 commit(s)</title></rect>
<rect x="338" y="217" width="14" height="14" rx="3" fill="#161B22"><title>2026-02-06: 0 commit(s)</title></rect>
<rect x="338" y="235" width="14" height="14" rx="3" fill="#161B22"><title>2026-02-07: 0 commit(s)</title></rect>
<rect x="356" y="253" width="14" height="14" rx="3" fill="#161B22"><title>2026-02-08: 0 commit(s)</title></rect>
<rect x="356" y="145" width="14" height="14" rx="3" fill="#161B22"><title>2026-02-09: 0 commit(s)</title></rect>
<rect x="356" y="163" width="14" height="14" rx="3" fill="#161B22"><title>2026-02-10: 0 commit(s)</title></rect>
<rect x="356" y="181" width="14" height="14" rx="3" fill="#161B22"><title>2026-02-11: 0 commit(s)</title></rect>
<rect x="356" y="199" width="14" height="14" rx="3" fill="#161B22"><title>2026-02-12: 0 commit(s)</title></rect>
<rect x="356" y="217" width="14" height="14" rx="3" fill="#161B22"><title>2026-02-13: 0 commit(s)</title></rect>
<rect x="356" y="235" width="14" height="14" rx="3" fill="#161B22"><title>2026-02-14: 0 commit(s)</title></rect>
<rect x="374" y="253" width="14" height="14" rx="3" fill="#161B22"><title>2026-02-15: 0 commit(s)</title></rect>
<rect x="374" y="145" width="14" height="14" rx="3" fill="#161B22"><title>2026-02-16: 0 commit(s)</title></rect>
<rect x="374" y="163" width="14" height="14" rx="3" fill="#161B22"><title>2026-02-17: 0 commit(s)</title></rect>
<rect x="374" y="181" width="14" height="14" rx="3" fill="#161B22"><title>2026-02-18: 0 commit(s)</title></rect>
<rect x="374" y="199" width="14" height="14" rx="3" fill="#161B22"><title>2026-02-19: 0 commit(s)</title></rect>
<rect x="374" y="217" width="14" height="14" rx="3" fill="#161B22"><title>2026-02-20: 0 commit(s)</title></rect>
<rect x="374" y="235" width="14" height="14" rx="3" fill="#161B22"><title>2026-02-21: 0 commit(s)</title></rect>
<rect x="392" y="253" width="14" height="14" rx="3" fill="#161B22"><title>2026-02-22: 0 commit(s)</title></rect>
<rect x="392" y="145" width="14" height="14" rx="3" fill="#161B22"><title>2026-02-23: 0 commit(s)</title></rect>
<rect x="392" y="163" width="14" height="14" rx="3" fill="#161B22"><title>2026-02-24: 0 commit(s)</title></rect>
<rect x="392" y="181" width="14" height="14" rx="3" fill="#161B22"><title>2026-02-25: 0 commit(s)</title></rect>
<rect x="392" y="199" width="14" height="14" rx="3" fill="#161B22"><title>2026-02-26: 0 commit(s)</title></rect>
<rect x="392" y="217" width="14" height="14" rx="3" fill="#161B22"><title>2026-02-27: 0 commit(s)</title></rect>
<rect x="392" y="235" width="14" height="14" rx="3" fill="#161B22"><title>2026-02-28: 0 commit(s)</title></rect>
<rect x="410" y="253" width="14" height="14" rx="3" fill="#161B22"><title>2026-03-01: 0 commit(s)</title></rect>
<rect x="410" y="145" width="14" height="14" rx="3" fill="#161B22"><title>2026-03-02: 0 commit(s)</title></rect>
<rect x="410" y="163" width="14" height="14" rx="3" fill="#161B22"><title>2026-03-03: 0 commit(s)</title></rect>
<rect x="410" y="181" width="14" height="14" rx="3" fill="#161B22"><title>2026-03-04: 0 commit(s)</title></rect>
<rect x="410" y="199" width="14" height="14" rx="3" fill="#161B22"><title>2026-03-05: 0 commit(s)</title></rect>
<rect x="410" y="217" width="14" height="14" rx="3" fill="#161B22"><title>2026-03-06: 0 commit(s)</title></rect>
<rect x="410" y="235" width="14" height="14" rx="3" fill="#161B22"><title>2026-03-07: 0 commit(s)</title></rect>
<rect x="428" y="253" width="14" height="14" rx="3" fill="#161B22"><title>2026-03-08: 0 commit(s)</title></rect>
<rect x="428" y="145" width="14" height="14" rx="3" fill="#161B22"><title>2026-03-09: 0 commit(s)</title></rect>
<rect x="428" y="163" width="14" height="14" rx="3" fill="#161B22"><title>2026-03-10: 0 commit(s)</title></rect>
<rect x="428" y="181" width="14" height="14" rx="3" fill="#161B22"><title>2026-03-11: 0 commit(s)</title></rect>
<rect x="428" y="199" width="14" height="14" rx="3" fill="#161B22"><title>2026-03-12: 0 commit(s)</title></rect>
<rect x="428" y="217" width="14" height="14" rx="3" fill="#161B22"><title>2026-03-13: 0 commit(s)</title></rect>
<rect x="428" y="235" width="14" height="14" rx="3" fill="#26A641"><title>2026-03-14: 7 commit(s)</title></rect>
<rect x="446" y="253" width="14" height="14" rx="3" fill="#161B22"><title>2026-03-15: 0 commit(s)</title></rect>
<rect x="446" y="145" width="14" height="14" rx="3" fill="#161B22"><title>2026-03-16: 0 commit(s)</title></rect>
<rect x="446" y="163" width="14" height="14" rx="3" fill="#161B22"><title>2026-03-17: 0 commit(s)</title></rect>
<rect x="446" y="181" width="14" height="14" rx="3" fill="#161B22"><title>2026-03-18: 0 commit(s)</title></rect>
<rect x="446" y="199" width="14" height="14" rx="3" fill="#161B22"><title>2026-03-19: 0 commit(s)</title></rect>
<rect x="446" y="217" width="14" height="14" rx="3" fill="#161B22"><title>2026-03-20: 0 commit(s)</title></rect>
<rect x="446" y="235" width="14" height="14" rx="3" fill="#161B22"><title>2026-03-21: 0 commit(s)</title></rect>
<rect x="464" y="253" width="14" height="14" rx="3" fill="#006D32"><title>2026-03-22: 3 commit(s)</title></rect>
<rect x="464" y="145" width="14" height="14" rx="3" fill="#161B22"><title>2026-03-23: 0 commit(s)</title></rect>
<rect x="464" y="163" width="14" height="14" rx="3" fill="#161B22"><title>2026-03-24: 0 commit(s)</title></rect>
<rect x="464" y="181" width="14" height="14" rx="3" fill="#161B22"><title>2026-03-25: 0 commit(s)</title></rect>
<rect x="464" y="199" width="14" height="14" rx="3" fill="#161B22"><title>2026-03-26: 0 commit(s)</title></rect>
<rect x="464" y="217" width="14" height="14" rx="3" fill="#161B22"><title>2026-03-27: 0 commit(s)</title></rect>
<rect x="464" y="235" width="14" height="14" rx="3" fill="#161B22"><title>2026-03-28: 0 commit(s)</title></rect>
<rect x="482" y="253" width="14" height="14" rx="3" fill="#161B22"><title>2026-03-29: 0 commit(s)</title></rect>
<rect x="482" y="145" width="14" height="14" rx="3" fill="#161B22"><title>2026-03-30: 0 commit(s)</title></rect>
<rect x="482" y="163" width="14" height="14" rx="3" fill="#161B22"><title>2026-03-31: 0 commit(s)</title></rect>
<rect x="482" y="181" width="14" height="14" rx="3" fill="#161B22"><title>2026-04-01: 0 commit(s)</title></rect>
<rect x="482" y="199" width="14" height="14" rx="3" fill="#161B22"><title>2026-04-02: 0 commit(s)</title></rect>
<rect x="482" y="217" width="14" height="14" rx="3" fill="#161B22"><title>2026-04-03: 0 commit(s)</title></rect>
<rect x="482" y="235" width="14" height="14" rx="3" fill="#161B22"><title>2026-04-04: 0 commit(s)</title></rect>
<rect x="500" y="253" width="14" height="14" rx="3" fill="#161B22"><title>2026-04-05: 0 commit(s)</title></rect>
<rect x="500" y="145" width="14" height="14" rx="3" fill="#161B22"><title>2026-04-06: 0 commit(s)</title></rect>
<rect x="500" y="163" width="14" height="14" rx="3" fill="#161B22"><title>2026-04-07: 0 commit(s)</title></rect>
<rect x="500" y="181" width="14" height="14" rx="3" fill="#161B22"><title>2026-04-08: 0 commit(s)</title></rect>
<rect x="500" y="199" width="14" height="14" rx="3" fill="#161B22"><title>2026-04-09: 0 commit(s)</title></rect>
<rect x="500" y="217" width="14" height="14" rx="3" fill="#161B22"><title>2026-04-10: 0 commit(s)</title></rect>
<rect x="500" y="235" width="14" height="14" rx="3" fill="#161B22"><title>2026-04-11: 0 commit(s)</title></rect>
<rect x="518" y="253" width="14" height="14" rx="3" fill="#161B22"><title>2026-04-12: 0 commit(s)</title></rect>
<rect x="518" y="145" width="14" height="14" rx="3" fill="#161B22"><title>2026-04-13: 0 commit(s)</title></rect>
<rect x="518" y="163" width="14" height="14" rx="3" fill="#161B22"><title>2026-04-14: 0 commit(s)</title></rect>
<rect x="518" y="181" width="14" height="14" rx="3" fill="#161B22"><title>2026-04-15: 0 commit(s)</title></rect>
<rect x="518" y="199" width="14" height="14" rx="3" fill="#161B22"><title>2026-04-16: 0 commit(s)</title></rect>
<rect x="518" y="217" width="14" height="14" rx="3" fill="#161B22"><title>2026-04-17: 0 commit(s)</title></rect>
<rect x="518" y="235" width="14" height="14" rx="3" fill="#161B22"><title>2026-04-18: 0 commit(s)</title></rect>
<rect x="536" y="253" width="14" height="14" rx="3" fill="#161B22"><title>2026-04-19: 0 commit(s)</title></rect>
<rect x="536" y="145" width="14" height="14" rx="3" fill="#161B22"><title>2026-04-20: 0 commit(s)</title></rect>
<rect x="536" y="163" width="14" height="14" rx="3" fill="#161B22"><title>2026-04-21: 0 commit(s)</title></rect>
<rect x="536" y="181" width="14" height="14" rx="3" fill="#161B22"><title>2026-04-22: 0 commit(s)</title></rect>
<rect x="536" y="199" width="14" height="14" rx="3" fill="#161B22"><title>2026-04-23: 0 commit(s)</title></rect>
<rect x="536" y="217" width="14" height="14" rx="3" fill="#161B22"><title>2026-04-24: 0 commit(s)</title></rect>
<rect x="536" y="235" width="14" height="14" rx="3" fill="#161B22"><title>2026-04-25: 0 commit(s)</title></rect>
<rect x="554" y="253" width="14" height="14" rx="3" fill="#161B22"><title>2026-04-26: 0 commit(s)</title></rect>
<rect x="554" y="145" width="14" height="14" rx="3" fill="#161B22"><title>2026-04-27: 0 commit(s)</title></rect>
<rect x="554" y="163" width="14" height="14" rx="3" fill="#161B22"><title>2026-04-28: 0 commit(s)</title></rect>
<rect x="554" y="181" width="14" height="14" rx="3" fill="#161B22"><title>2026-04-29: 0 commit(s)</title></rect>
<rect x="554" y="199" width="14" height="14" rx="3" fill="#161B22"><title>2026-04-30: 0 commit(s)</title></rect>
<rect x="554" y="217" width="14" height="14" rx="3" fill="#161B22"><title>2026-05-01: 0 commit(s)</title></rect>
<rect x="554" y="235" width="14" height="14" rx="3" fill="#161B22"><title>2026-05-02: 0 commit(s)</title></rect>
<rect x="572" y="253" width="14" height="14" rx="3" fill="#161B22"><title>2026-05-03: 0 commit(s)</title></rect>
<rect x="572" y="145" width="14" height="14" rx="3" fill="#161B22"><title>2026-05-04: 0 commit(s)</title></rect>
<rect x="572" y="163" width="14" height="14" rx="3" fill="#006D32"><title>2026-05-05: 3 commit(s)</title></rect>
<rect x="572" y="181" width="14" height="14" rx="3" fill="#161B22"><title>2026-05-06: 0 commit(s)</title></rect>
<rect x="572" y="199" width="14" height="14" rx="3" fill="#0E4429"><title>2026-05-07: 1 commit(s)</title></rect>
<rect x="572" y="217" width="14" height="14" rx="3" fill="#161B22"><title>2026-05-08: 0 commit(s)</title></rect>
<rect x="572" y="235" width="14" height="14" rx="3" fill="#161B22"><title>2026-05-09: 0 commit(s)</title></rect>
<rect x="590" y="253" width="14" height="14" rx="3" fill="#161B22"><title>2026-05-10: 0 commit(s)</title></rect>
<rect x="590" y="145" width="14" height="14" rx="3" fill="#161B22"><title>2026-05-11: 0 commit(s)</title></rect>
<rect x="590" y="163" width="14" height="14" rx="3" fill="#161B22"><title>2026-05-12: 0 commit(s)</title></rect>
<rect x="590" y="181" width="14" height="14" rx="3" fill="#161B22"><title>2026-05-13: 0 commit(s)</title></rect>
<rect x="590" y="199" width="14" height="14" rx="3" fill="#161B22"><title>2026-05-14: 0 commit(s)</title></rect>
<rect x="590" y="217" width="14" height="14" rx="3" fill="#161B22"><title>2026-05-15: 0 commit(s)</title></rect>
<rect x="590" y="235" width="14" height="14" rx="3" fill="#161B22"><title>2026-05-16: 0 commit(s)</title></rect>
<rect x="608" y="253" width="14" height="14" rx="3" fill="#161B22"><title>2026-05-17: 0 commit(s)</title></rect>
<rect x="608" y="145" width="14" height="14" rx="3" fill="#161B22"><title>2026-05-18: 0 commit(s)</title></rect>
<rect x="608" y="163" width="14" height="14" rx="3" fill="#161B22"><title>2026-05-19: 0 commit(s)</title></rect>
<rect x="608" y="181" width="14" height="14" rx="3" fill="#161B22"><title>2026-05-20: 0 commit(s)</title></rect>
<rect x="608" y="199" width="14" height="14" rx="3" fill="#161B22"><title>2026-05-21: 0 commit(s)</title></rect>
<rect x="608" y="217" width="14" height="14" rx="3" fill="#161B22"><title>2026-05-22: 0 commit(s)</title></rect>
<rect x="608" y="235" width="14" height="14" rx="3" fill="#161B22"><title>2026-05-23: 0 commit(s)</title></rect>
<rect x="626" y="253" width="14" height="14" rx="3" fill="#161B22"><title>2026-05-24: 0 commit(s)</title></rect>
<rect x="626" y="145" width="14" height="14" rx="3" fill="#161B22"><title>2026-05-25: 0 commit(s)</title></rect>
<rect x="626" y="163" width="14" height="14" rx="3" fill="#161B22"><title>2026-05-26: 0 commit(s)</title></rect>
<rect x="626" y="181" width="14" height="14" rx="3" fill="#161B22"><title>2026-05-27: 0 commit(s)</title></rect>
<rect x="626" y="199" width="14" height="14" rx="3" fill="#161B22"><title>2026-05-28: 0 commit(s)</title></rect>
<rect x="626" y="217" width="14" height="14" rx="3" fill="#161B22"><title>2026-05-29: 0 commit(s)</title></rect>
<rect x="626" y="235" width="14" height="14" rx="3" fill="#161B22"><title>2026-05-30: 0 commit(s)</title></rect>
<rect x="644" y="253" width="14" height="14" rx="3" fill="#161B22"><title>2026-05-31: 0 commit(s)</title></rect>
<rect x="644" y="145" width="14" height="14" rx="3" fill="#161B22"><title>2026-06-01: 0 commit(s)</title></rect>
<rect x="644" y="163" width="14" height="14" rx="3" fill="#161B22"><title>2026-06-02: 0 commit(s)</title></rect>
<rect x="644" y="181" width="14" height="14" rx="3" fill="#161B22"><title>2026-06-03: 0 commit(s)</title></rect>
<rect x="644" y="199" width="14" height="14" rx="3" fill="#161B22"><title>2026-06-04: 0 commit(s)</title></rect>
<rect x="644" y="217" width="14" height="14" rx="3" fill="#161B22"><title>2026-06-05: 0 commit(s)</title></rect>
<rect x="644" y="235" width="14" height="14" rx="3" fill="#161B22"><title>2026-06-06: 0 commit(s)</title></rect>
<rect x="662" y="253" width="14" height="14" rx="3" fill="#161B22"><title>2026-06-07: 0 commit(s)</title></rect>
<rect x="662" y="145" width="14" height="14" rx="3" fill="#161B22"><title>2026-06-08: 0 commit(s)</title></rect>
<rect x="662" y="163" width="14" height="14" rx="3" fill="#161B22"><title>2026-06-09: 0 commit(s)</title></rect>
<rect x="662" y="181" width="14" height="14" rx="3" fill="#161B22"><title>2026-06-10: 0 commit(s)</title></rect>
<rect x="662" y="199" width="14" height="14" rx="3" fill="#161B22"><title>2026-06-11: 0 commit(s)</title></rect>
<rect x="662" y="217" width="14" height="14" rx="3" fill="#161B22"><title>2026-06-12: 0 commit(s)</title></rect>
<rect x="662" y="235" width="14" height="14" rx="3" fill="#161B22"><title>2026-06-13: 0 commit(s)</title></rect>
<rect x="680" y="253" width="14" height="14" rx="3" fill="#161B22"><title>2026-06-14: 0 commit(s)</title></rect>
<rect x="680" y="145" width="14" height="14" rx="3" fill="#161B22"><title>2026-06-15: 0 commit(s)</title></rect>
<rect x="680" y="163" width="14" height="14" rx="3" fill="#161B22"><title>2026-06-16: 0 commit(s)</title></rect>
<rect x="680" y="181" width="14" height="14" rx="3" fill="#161B22"><title>2026-06-17: 0 commit(s)</title></rect>
<rect x="680" y="199" width="14" height="14" rx="3" fill="#161B22"><title>2026-06-18: 0 commit(s)</title></rect>
<rect x="680" y="217" width="14" height="14" rx="3" fill="#161B22"><title>2026-06-19: 0 commit(s)</title></rect>
<rect x="680" y="235" width="14" height="14" rx="3" fill="#161B22"><title>2026-06-20: 0 commit(s)</title></rect>
<rect x="698" y="253" width="14" height="14" rx="3" fill="#161B22"><title>2026-06-21: 0 commit(s)</title></rect>
<rect x="698" y="145" width="14" height="14" rx="3" fill="#161B22"><title>2026-06-22: 0 commit(s)</title></rect>
<rect x="698" y="163" width="14" height="14" rx="3" fill="#161B22"><title>2026-06-23: 0 commit(s)</title></rect>
<rect x="698" y="181" width="14" height="14" rx="3" fill="#161B22"><title>2026-06-24: 0 commit(s)</title></rect>
<rect x="698" y="199" width="14" height="14" rx="3" fill="#161B22"><title>2026-06-25: 0 commit(s)</title></rect>
<rect x="698" y="217" width="14" height="14" rx="3" fill="#161B22"><title>2026-06-26: 0 commit(s)</title></rect>
<rect x="698" y="235" width="14" height="14" rx="3" fill="#161B22"><title>2026-06-27: 0 commit(s)</title></rect>
<rect x="716" y="253" width="14" height="14" rx="3" fill="#161B22"><title>2026-06-28: 0 commit(s)</title></rect>
<rect x="716" y="145" width="14" height="14" rx="3" fill="#161B22"><title>2026-06-29: 0 commit(s)</title></rect>
<rect x="716" y="163" width="14" height="14" rx="3" fill="#161B22"><title>2026-06-30: 0 commit(s)</title></rect>
<rect x="716" y="181" width="14" height="14" rx="3" fill="#161B22"><title>2026-07-01: 0 commit(s)</title></rect>
<rect x="716" y="199" width="14" height="14" rx="3" fill="#161B22"><title>2026-07-02: 0 commit(s)</title></rect>
<rect x="716" y="217" width="14" height="14" rx="3" fill="#161B22"><title>2026-07-03: 0 commit(s)</title></rect>
<rect x="716" y="235" width="14" height="14" rx="3" fill="#161B22"><title>2026-07-04: 0 commit(s)</title></rect>
<rect x="734" y="253" width="14" height="14" rx="3" fill="#161B22"><title>2026-07-05: 0 commit(s)</title></rect>
<rect x="734" y="145" width="14" height="14" rx="3" fill="#161B22"><title>2026-07-06: 0 commit(s)</title></rect>
<rect x="734" y="163" width="14" height="14" rx="3" fill="#161B22"><title>2026-07-07: 0 commit(s)</title></rect>
<rect x="734" y="181" width="14" height="14" rx="3" fill="#161B22"><title>2026-07-08: 0 commit(s)</title></rect>
<rect x="734" y="199" width="14" height="14" rx="3" fill="#161B22"><title>2026-07-09: 0 commit(s)</title></rect>
<rect x="734" y="217" width="14" height="14" rx="3" fill="#161B22"><title>2026-07-10: 0 commit(s)</title></rect>
<rect x="734" y="235" width="14" height="14" rx="3" fill="#161B22"><title>2026-07-11: 0 commit(s)</title></rect>
<rect x="752" y="253" width="14" height="14" rx="3" fill="#161B22"><title>2026-07-12: 0 commit(s)</title></rect>
<rect x="752" y="145" width="14" height="14" rx="3" fill="#161B22"><title>2026-07-13: 0 commit(s)</title></rect>
<rect x="752" y="163" width="14" height="14" rx="3" fill="#161B22"><title>2026-07-14: 0 commit(s)</title></rect>
<rect x="752" y="181" width="14" height="14" rx="3" fill="#161B22"><title>2026-07-15: 0 commit(s)</title></rect>
<rect x="752" y="199" width="14" height="14" rx="3" fill="#161B22"><title>2026-07-16: 0 commit(s)</title></rect>
<rect x="752" y="217" width="14" height="14" rx="3" fill="#161B22"><title>2026-07-17: 0 commit(s)</title></rect>
<rect x="752" y="235" width="14" height="14" rx="3" fill="#161B22"><title>2026-07-18: 0 commit(s)</title></rect>
<rect x="770" y="253" width="14" height="14" rx="3" fill="#161B22"><title>2026-07-19: 0 commit(s)</title></rect>
<rect x="770" y="145" width="14" height="14" rx="3" fill="#161B22"><title>2026-07-20: 0 commit(s)</title></rect>
<rect x="770" y="163" width="14" height="14" rx="3" fill="#161B22"><title>2026-07-21: 0 commit(s)</title></rect>
<rect x="770" y="181" width="14" height="14" rx="3" fill="#161B22"><title>2026-07-22: 0 commit(s)</title></rect>
<rect x="770" y="199" width="14" height="14" rx="3" fill="#161B22"><title>2026-07-23: 0 commit(s)</title></rect>
<rect x="770" y="217" width="14" height="14" rx="3" fill="#161B22"><title>2026-07-24: 0 commit(s)</title></rect>
<rect x="770" y="235" width="14" height="14" rx="3" fill="#161B22"><title>2026-07-25: 0 commit(s)</title></rect>
<rect x="788" y="253" width="14" height="14" rx="3" fill="#161B22"><title>2026-07-26: 0 commit(s)</title></rect>
<rect x="788" y="145" width="14" height="14" rx="3" fill="#161B22"><title>2026-07-27: 0 commit(s)</title></rect>
<rect x="788" y="163" width="14" height="14" rx="3" fill="#161B22"><title>2026-07-28: 0 commit(s)</title></rect>
<rect x="788" y="181" width="14" height="14" rx="3" fill="#161B22"><title>2026-07-29: 0 commit(s)</title></rect>
<rect x="788" y="199" width="14" height="14" rx="3" fill="#161B22"><title>2026-07-30: 0 commit(s)</title></rect>
<rect x="788" y="217" width="14" height="14" rx="3" fill="#161B22"><title>2026-07-31: 0 commit(s)</title></rect>
<rect x="788" y="235" width="14" height="14" rx="3" fill="#161B22"><title>2026-08-01: 0 commit(s)</title></rect>
<rect x="806" y="253" width="14" height="14" rx="3" fill="#161B22"><title>2026-08-02: 0 commit(s)</title></rect>
<rect x="806" y="145" width="14" height="14" rx="3" fill="#161B22"><title>2026-08-03: 0 commit(s)</title></rect>
<rect x="806" y="163" width="14" height="14" rx="3" fill="#161B22"><title>2026-08-04: 0 commit(s)</title></rect>
<rect x="806" y="181" width="14" height="14" rx="3" fill="#161B22"><title>2026-08-05: 0 commit(s)</title></rect>
<rect x="806" y="199" width="14" height="14" rx="3" fill="#161B22"><title>2026-08-06: 0 commit(s)</title></rect>
<rect x="806" y="217" width="14" height="14" rx="3" fill="#161B22"><title>2026-08-07: 0 commit(s)</title></rect>
<rect x="806" y="235" width="14" height="14" rx="3" fill="#161B22"><title>2026-08-08: 0 commit(s)</title></rect>
<rect x="824" y="253" width="14" height="14" rx="3" fill="#161B22"><title>2026-08-09: 0 commit(s)</title></rect>
<rect x="824" y="145" width="14" height="14" rx="3" fill="#161B22"><title>2026-08-10: 0 commit(s)</title></rect>
<rect x="824" y="163" width="14" height="14" rx="3" fill="#161B22"><title>2026-08-11: 0 commit(s)</title></rect>
<rect x="824" y="181" width="14" height="14" rx="3" fill="#161B22"><title>2026-08-12: 0 commit(s)</title></rect>
<rect x="824" y="199" width="14" height="14" rx="3" fill="#161B22"><title>2026-08-13: 0 commit(s)</title></rect>
<rect x="824" y="217" width="14" height="14" rx="3" fill="#161B22"><title>2026-08-14: 0 commit(s)</title></rect>
<rect x="824" y="235" width="14" height="14" rx="3" fill="#161B22"><title>2026-08-15: 0 commit(s)</title></rect>
<rect x="842" y="253" width="14" height="14" rx="3" fill="#161B22"><title>2026-08-16: 0 commit(s)</title></rect>
<rect x="842" y="145" width="14" height="14" rx="3" fill="#161B22"><title>2026-08-17: 0 commit(s)</title></rect>
<rect x="842" y="163" width="14" height="14" rx="3" fill="#161B22"><title>2026-08-18: 0 commit(s)</title></rect>
<rect x="842" y="181" width="14" height="14" rx="3" fill="#161B22"><title>2026-08-19: 0 commit(s)</title></rect>
<rect x="842" y="199" width="14" height="14" rx="3" fill="#161B22"><title>2026-08-20: 0 commit(s)</title></rect>
<rect x="842" y="217" width="14" height="14" rx="3" fill="#161B22"><title>2026-08-21: 0 commit(s)</title></rect>
<rect x="842" y="235" width="14" height="14" rx="3" fill="#161B22"><title>2026-08-22: 0 commit(s)</title></rect>
<rect x="860" y="253" width="14" height="14" rx="3" fill="#161B22"><title>2026-08-23: 0 commit(s)</title></rect>
<rect x="860" y="145" width="14" height="14" rx="3" fill="#161B22"><title>2026-08-24: 0 commit(s)</title></rect>
<rect x="860" y="163" width="14" height="14" rx="3" fill="#161B22"><title>2026-08-25: 0 commit(s)</title></rect>
<rect x="860" y="181" width="14" height="14" rx="3" fill="#161B22"><title>2026-08-26: 0 commit(s)</title></rect>
<rect x="860" y="199" width="14" height="14" rx="3" fill="#161B22"><title>2026-08-27: 0 commit(s)</title></rect>
<rect x="860" y="217" width="14" height="14" rx="3" fill="#161B22"><title>2026-08-28: 0 commit(s)</title></rect>
<rect x="860" y="235" width="14" height="14" rx="3" fill="#161B22"><title>2026-08-29: 0 commit(s)</title></rect>
<rect x="878" y="253" width="14" height="14" rx="3" fill="#161B22"><title>2026-08-30: 0 commit(s)</title></rect>
<rect x="878" y="145" width="14" height="14" rx="3" fill="#161B22"><title>2026-08-31: 0 commit(s)</title></rect>
<rect x="878" y="163" width="14" height="14" rx="3" fill="#161B22"><title>2026-09-01: 0 commit(s)</title></rect>
<rect x="878" y="181" width="14" height="14" rx="3" fill="#161B22"><title>2026-09-02: 0 commit(s)</title></rect>
<rect x="878" y="199" width="14" height="14" rx="3" fill="#161B22"><title>2026-09-03: 0 commit(s)</title></rect>
<rect x="878" y="217" width="14" height="14" rx="3" fill="#161B22"><title>2026-09-04: 0 commit(s)</title></rect>
<rect x="878" y="235" width="14" height="14" rx="3" fill="#161B22"><title>2026-09-05: 0 commit(s)</title></rect>
<rect x="896" y="253" width="14" height="14" rx="3" fill="#161B22"><title>2026-09-06: 0 commit(s)</title></rect>
<rect x="896" y="145" width="14" height="14" rx="3" fill="#161B22"><title>2026-09-07: 0 commit(s)</title></rect>
<rect x="896" y="163" width="14" height="14" rx="3" fill="#161B22"><title>2026-09-08: 0 commit(s)</title></rect>
<rect x="896" y="181" width="14" height="14" rx="3" fill="#161B22"><title>2026-09-09: 0 commit(s)</title></rect>
<rect x="896" y="199" width="14" height="14" rx="3" fill="#161B22"><title>2026-09-10: 0 commit(s)</title></rect>
<rect x="896" y="217" width="14" height="14" rx="3" fill="#161B22"><title>2026-09-11: 0 commit(s)</title></rect>
<rect x="896" y="235" width="14" height="14" rx="3" fill="#161B22"><title>2026-09-12: 0 commit(s)</title></rect>
<rect x="914" y="253" width="14" height="14" rx="3" fill="#161B22"><title>2026-09-13: 0 commit(s)</title></rect>
<rect x="914" y="145" width="14" height="14" rx="3" fill="#161B22"><title>2026-09-14: 0 commit(s)</title></rect>
<rect x="914" y="163" width="14" height="14" rx="3" fill="#161B22"><title>2026-09-15: 0 commit(s)</title></rect>
<rect x="914" y="181" width="14" height="14" rx="3" fill="#161B22"><title>2026-09-16: 0 commit(s)</title></rect>
<rect x="914" y="199" width="14" height="14" rx="3" fill="#161B22"><title>2026-09-17: 0 commit(s)</title></rect>
<rect x="914" y="217" width="14" height="14" rx="3" fill="#161B22"><title>2026-09-18: 0 commit(s)</title></rect>
<rect x="914" y="235" width="14" height="14" rx="3" fill="#161B22"><title>2026-09-19: 0 commit(s)</title></rect>
<rect x="932" y="253" width="14" height="14" rx="3" fill="#161B22"><title>2026-09-20: 0 commit(s)</title></rect>
<rect x="932" y="145" width="14" height="14" rx="3" fill="#161B22"><title>2026-09-21: 0 commit(s)</title></rect>
<rect x="932" y="163" width="14" height="14" rx="3" fill="#161B22"><title>2026-09-22: 0 commit(s)</title></rect>
<rect x="932" y="181" width="14" height="14" rx="3" fill="#161B22"><title>2026-09-23: 0 commit(s)</title></rect>
<rect x="932" y="199" width="14" height="14" rx="3" fill="#161B22"><title>2026-09-24: 0 commit(s)</title></rect>
<rect x="932" y="217" width="14" height="14" rx="3" fill="#161B22"><title>2026-09-25: 0 commit(s)</title></rect>
<rect x="932" y="235" width="14" height="14" rx="3" fill="#161B22"><title>2026-09-26: 0 commit(s)</title></rect>
<rect x="950" y="253" width="14" height="14" rx="3" fill="#161B22"><title>2026-09-27: 0 commit(s)</title></rect>
<rect x="950" y="145" width="14" height="14" rx="3" fill="#39D353"><title>2026-09-28: 10 commit(s)</title></rect>
<rect x="950" y="163" width="14" height="14" rx="3" fill="#161B22"><title>2026-09-29: 0 commit(s)</title></rect>
<rect x="950" y="181" width="14" height="14" rx="3" fill="#161B22"><title>2026-09-30: 0 commit(s)</title></rect>
<rect x="950" y="199" width="14" height="14" rx="3" fill="#161B22"><title>2026-10-01: 0 commit(s)</title></rect>
<rect x="950" y="217" width="14" height="14" rx="3" fill="#161B22"><title>2026-10-02: 0 commit(s)</title></rect>
<rect x="950" y="235" width="14" height="14" rx="3" fill="#006D32"><title>2026-10-03: 3 commit(s)</title></rect>
<rect x="968" y="253" width="14" height="14" rx="3" fill="#161B22"><title>2026-10-04: 0 commit(s)</title></rect>

            <text x="32" y="290"
                  fill="#8B949E"
                  font-family="monospace"
                  font-size="12">
              COMMITS
            </text>

            <text x="32" y="324"
                  fill="#58A6FF"
                  font-family="monospace"
                  font-size="25"
                  font-weight="bold">
              44
            </text>
            

            <text x="267" y="290"
                  fill="#8B949E"
                  font-family="monospace"
                  font-size="12">
              ACTIVE DAYS
            </text>

            <text x="267" y="324"
                  fill="#58A6FF"
                  font-family="monospace"
                  font-size="25"
                  font-weight="bold">
              10
            </text>
            

            <text x="502" y="290"
                  fill="#8B949E"
                  font-family="monospace"
                  font-size="12">
              PUBLIC REPOS
            </text>

            <text x="502" y="324"
                  fill="#58A6FF"
                  font-family="monospace"
                  font-size="25"
                  font-weight="bold">
              23
            </text>
            

            <text x="737" y="290"
                  fill="#8B949E"
                  font-family="monospace"
                  font-size="12">
              STARS
            </text>

            <text x="737" y="324"
                  fill="#58A6FF"
                  font-family="monospace"
                  font-size="25"
                  font-weight="bold">
              3
            </text>
            

        <line x1="32" y1="355"
              x2="968" y2="355"
              stroke="#21262D"/>

        <text x="32" y="390"
              fill="#8B949E"
              font-family="monospace"
              font-size="13">
          SYSTEM STATUS
        </text>

        <circle cx="153" cy="385"
                r="5"
                fill="#3FB950"/>

        <text x="167" y="390"
              fill="#3FB950"
              font-family="monospace"
              font-size="13"
              font-weight="bold">
          ACTIVE
        </text>

        <text x="32" y="425"
              fill="#8B949E"
              font-family="monospace"
              font-size="12">
          Activity is generated automatically from public GitHub repositories.
        </text>

        <text x="32" y="447"
              fill="#484F58"
              font-family="monospace"
              font-size="11">
          last generated: 2026-10-04 09:44 UTC
        </text>

        </svg>
        